<?xml version="1.0" standalone="no"?>
<!DOCTYPE svg PUBLIC "-//W3C//DTD SVG 20010904//EN"
 "http://www.w3.org/TR/2001/REC-SVG-20010904/DTD/svg10.dtd">
<svg version="1" xmlns="http://www.w3.org/2000/svg"
 width="200pt" height="200pt" viewBox="0 0 200 200"
 preserveAspectRatio="xMidYMid meet">
<metadata>
Created by potrace 1.10, written by Peter Selinger 2001-2011
</metadata>
<g transform="matrix(0.1,0,0,-0.1,0,200)"
fill="#000000" stroke="none">
<path d="M 854.9 1590.8 l -28 -24 l -3 -161 c -2 -99 -7 -161 -13 -161 c -11 0 -190 93 -224 116 c -11 8 -27 14 -37 14 c -10 0 -18 5 -18 10 c 0 6 -14 10 -30 10 c -35 0 -68 -30 -122 -110 c -62 -93 -65 -105 -38 -142 c 22 -30 22 -33 7 -57 c -45 -70 -76 -152 -88 -226 c -10 -69 -9 -92 5 -165 c 30 -145 107 -258 179 -261 c 96 -5 133 10 166 66 c 13 23 29 35 53 40 c 18 4 38 11 44 16 c 6 5 31 1 60 -9 l 49 -18 l 7 -74 c 9 -92 20 -117 55 -131 c 26 -10 201 -12 236 -2 c 31 8 47 57 47 143 l 0 82 l 53 -8 c 28 -5 77 -8 107 -9 c 48 0 55 -3 58 -21 c 8 -54 99 -94 172 -74 c 56 15 95 52 131 125 c 39 80 57 164 53 247 c -5 75 -33 190 -45 182 c -5 -3 -6 1 -4 8 c 3 7 -9 36 -26 63 c -31 49 -31 50 -14 81 c 22 41 12 74 -53 169 c -49 72 -84 95 -118 80 c -11 -4 -24 -9 -30 -10 c -20 -5 -209 -105 -199 -105 c 6 -1 -8 -7 -29 -15 c -22 -8 -43 -12 -48 -9 c -4 3 -8 75 -8 160 c 0 155 0 155 -26 179 c -25 23 -34 25 -140 25 c -105 0 -115 -2 -141 -24 z m 266 -217 c -1 -110 1 -203 4 -206 c 3 -3 18 3 34 14 c 15 11 62 37 103 58 c 41 21 110 58 154 82 c 76 42 106 52 106 35 c 0 -5 25 -46 55 -92 c 30 -46 54 -88 52 -93 c -1 -4 -35 -23 -75 -41 c -99 -45 -112 -60 -47 -51 c 83 11 90 11 88 -2 c -2 -8 4 -10 15 -6 c 9 3 14 3 10 -2 c -4 -4 2 -21 13 -37 c 19 -26 26 -44 28 -73 c 1 -5 5 -4 10 4 c 7 10 9 8 9 -10 c 0 -13 7 -54 15 -90 c 11 -50 12 -82 4 -130 c -5 -35 -10 -72 -10 -81 c -1 -10 -4 -18 -8 -18 c -4 0 -5 -10 -1 -22 c 3 -13 1 -19 -5 -15 c -6 4 -16 -5 -23 -21 c -18 -42 -50 -98 -50 -87 c 0 6 -5 2 -11 -7 c -14 -25 -144 -26 -171 -1 c -25 23 -22 58 7 81 c 31 24 31 30 3 41 c -18 6 -30 3 -53 -16 c -27 -23 -36 -25 -97 -21 c -63 5 -104 21 -94 37 c 3 4 -3 7 -12 7 c -9 1 -24 3 -32 5 c -17 5 -17 6 -19 -141 l -1 -120 l -129 0 l -128 0 l 5 94 c 5 106 -2 156 -21 137 c -16 -16 -68 -13 -91 4 c -14 11 -16 15 -5 15 c 12 0 12 2 -1 10 c -16 10 -47 14 -37 4 c 3 -3 -4 -15 -15 -26 c -22 -22 -67 -26 -111 -9 c -41 16 -41 15 -18 -25 c 12 -19 21 -43 21 -53 c 0 -26 -48 -43 -117 -42 c -48 0 -61 4 -75 23 c -10 13 -22 28 -28 35 c -5 7 -10 17 -10 23 c 0 5 -4 10 -10 10 c -5 0 -6 7 -3 17 c 4 11 3 14 -5 9 c -7 -4 -13 -2 -13 3 c -2 16 -5 23 -19 56 c -9 19 -14 71 -14 145 l -1 115 l 42 87 c 43 87 70 115 100 103 c 9 -3 32 -8 52 -11 c 30 -5 33 -4 23 9 c -7 8 -43 28 -80 43 c -37 15 -70 30 -75 34 c -4 4 16 42 45 87 c 29 44 58 88 64 99 c 11 18 14 17 80 -17 c 38 -21 114 -61 169 -89 c 55 -29 109 -59 120 -66 c 11 -8 23 -14 28 -14 c 5 0 7 92 5 205 l -3 205 l 128 0 l 128 0 l -2 -201 z"/>
<path d="M 497.9 1022.8 c -58 -99 -71 -139 -70 -223 c 0 -44 -1 -65 -4 -47 c -2 18 -8 30 -13 27 c -5 -4 -9 20 -10 57 l -1 63 l -13 -40 l -13 -40 l -1 33 c -2 60 -31 31 -31 -31 c 0 -23 3 -28 9 -18 c 7 10 11 0 17 -35 c 4 -27 13 -62 21 -79 c 12 -25 13 -26 9 -5 c -4 14 -8 43 -11 65 c -4 34 -3 32 11 -15 c 8 -30 20 -59 25 -65 c 7 -7 8 -4 4 8 c -4 9 -5 17 -2 17 c 3 0 19 -29 35 -63 c 17 -35 38 -70 47 -77 c 22 -18 19 -33 -5 -20 c -11 6 -18 15 -16 19 c 3 4 -6 19 -19 31 c -14 13 -25 34 -25 47 c 0 14 -4 21 -10 18 c -11 -7 14 -75 31 -86 c 8 -5 8 -8 1 -13 c -10 -6 -103 139 -116 180 c -3 11 -3 2 -1 -20 c 5 -47 61 -170 74 -162 c 5 4 13 1 17 -5 c 5 -8 3 -9 -6 -4 c -8 5 -11 3 -8 -6 c 3 -9 23 -15 53 -17 c 56 -4 76 9 53 35 c -58 66 -92 198 -77 296 c 9 57 58 169 79 182 c 13 8 13 35 0 35 c -5 0 -20 -19 -34 -42 z"/>
<path d="M 560.9 1041.8 c 9 -27 3 -59 -10 -52 c -5 4 -9 -3 -9 -14 c 0 -11 -7 -26 -15 -35 c -16 -15 -58 -106 -52 -112 c 2 -2 22 6 45 17 c 44 22 52 38 28 58 c -19 16 -10 46 17 59 c 41 19 60 22 73 11 c 7 -6 18 -8 24 -4 c 5 3 10 2 10 -4 c 0 -13 33 -23 54 -15 c 28 11 18 21 -61 60 c -119 58 -113 56 -104 31 z"/>
<path d="M 1347.9 1023.8 c -112 -54 -116 -63 -31 -55 c 70 7 71 7 102 -26 c 18 -18 37 -47 43 -63 c 10 -30 47 -62 58 -51 c 3 3 0 16 -6 29 c -6 12 -18 40 -27 62 c -9 22 -24 49 -34 60 c -24 27 -32 50 -19 63 c 25 25 -14 16 -86 -19 z"/>
<path d="M 1451.9 1055.8 c 0 -5 11 -26 25 -46 c 43 -64 67 -143 68 -226 c 0 -65 -4 -85 -32 -145 c -18 -38 -39 -77 -48 -87 c -24 -26 -5 -39 53 -35 l 49 3 l 38 75 c 21 41 40 93 42 115 c 2 22 2 32 -1 22 c -10 -31 -100 -182 -107 -179 c -4 1 -22 -5 -39 -14 l -32 -17 l 17 24 c 9 13 26 43 38 66 c 19 36 25 41 38 30 c 12 -10 13 -9 7 1 c -4 7 -3 18 2 25 c 6 7 17 35 25 62 c 9 28 16 41 16 30 c 1 -11 -3 -36 -9 -54 c -5 -19 -8 -36 -6 -39 c 5 -5 22 52 31 103 c 6 33 9 37 15 20 c 7 -16 9 -13 9 15 c 1 43 -8 80 -20 80 c -5 0 -9 -17 -10 -37 l -1 -38 l -13 40 l -13 40 l -1 -57 c -1 -32 -5 -58 -10 -58 c -5 0 -11 -12 -13 -27 c -2 -16 -4 8 -3 52 c 0 75 -3 85 -45 169 c -40 80 -70 117 -70 87 z"/>
<path d="M 941.9 993.8 c 0 -17 4 -28 10 -24 c 6 3 10 17 10 31 c 0 13 -4 24 -10 24 c -5 0 -10 -14 -10 -31 z"/>
<path d="M 1004.9 1017.8 c 36 -4 37 -5 37 -44 c 0 -31 4 -39 18 -38 c 10 0 12 3 5 6 c -8 2 -13 22 -13 44 l 0 39 l -42 -2 l -43 -1 l 38 -4 z"/>
<path d="M 767.9 912.8 c -24 -46 -19 -58 7 -17 c 15 24 28 34 41 31 c 11 -2 16 0 12 7 c -14 22 -45 11 -60 -21 z"/>
<path d="M 671.9 930.8 c 0 -5 12 -29 26 -53 l 26 -45 l -23 4 c -15 2 -32 18 -46 43 c -13 23 -23 33 -23 23 c 0 -24 -19 -22 -48 5 c -15 13 -3 -11 28 -57 l 53 -79 l -18 -34 c -11 -19 -29 -45 -41 -59 c -13 -13 -20 -24 -17 -24 c 4 0 -2 -6 -13 -14 c -27 -20 -17 -25 44 -19 c 51 5 55 8 81 50 l 28 45 l 27 -46 c 24 -41 30 -46 64 -46 c 20 0 48 -3 61 -7 c 32 -8 27 5 -39 97 l -51 72 l 47 62 c 27 33 53 64 58 68 c 6 4 7 10 3 15 c -5 4 -19 -7 -33 -25 c -14 -18 -31 -32 -39 -32 c -15 0 -48 -47 -41 -58 c 3 -4 0 -14 -5 -22 c -7 -12 -11 -13 -18 -2 c -7 11 -9 11 -14 -2 c -8 -20 -47 -21 -47 -2 c 0 8 -4 18 -10 21 c -5 3 -7 0 -4 -8 c 9 -24 -14 -29 -26 -6 c -7 11 -9 23 -6 27 c 3 3 -1 16 -10 30 c -8 13 -14 26 -11 28 c 2 3 12 -8 22 -23 c 21 -32 55 -62 70 -62 c 6 0 18 11 28 24 c 18 25 18 25 -8 25 c -14 0 -25 3 -25 8 c 0 11 -49 88 -50 78 z m 120 -191 c 12 -19 24 -35 27 -35 c 3 0 -2 12 -12 26 c -9 15 -13 24 -7 20 c 5 -3 19 -21 29 -39 c 17 -29 18 -34 5 -46 c -16 -16 -42 -5 -50 20 c -3 9 3 7 19 -6 l 24 -20 l -19 22 c -10 12 -23 21 -29 20 c -6 -1 -14 15 -17 36 c -8 46 2 47 30 2 z m -44 14 c 3 -6 -10 -9 -35 -8 c -22 2 -38 5 -36 8 c 6 11 64 10 71 0 z m -56 -25 c 0 -16 -43 -74 -55 -74 c -17 0 -14 20 8 53 c 15 24 47 38 47 21 z"/>
<path d="M 964.9 898.8 c 27 -32 21 -49 -9 -25 c -32 25 -50 27 -58 6 c -4 -11 2 -15 25 -15 c 48 0 59 -19 59 -100 c 0 -68 1 -72 30 -88 c 34 -20 39 -33 10 -25 c -36 10 -59 55 -63 124 c -3 57 -3 54 -5 -24 c -2 -81 0 -90 23 -112 c 19 -20 34 -25 75 -25 c 43 0 50 3 51 20 c 1 11 2 28 3 38 c 0 12 -5 16 -21 14 c -30 -4 -37 14 -37 88 c 1 44 0 50 -3 20 c -7 -73 -26 -76 -21 -3 c 3 39 0 64 -6 66 c -8 3 -7 11 2 26 c 7 11 8 21 3 21 c -5 0 -12 -8 -15 -17 c -4 -10 -10 -13 -14 -8 c -4 6 -16 17 -27 25 c -19 14 -20 14 -2 -6 z"/>
<path d="M 1215.9 878.8 c -27 -27 -38 -33 -44 -24 c -5 7 -6 20 -3 29 c 3 9 -4 3 -15 -14 c -33 -49 -37 -112 -10 -164 c 31 -60 65 -83 131 -89 c 69 -5 119 11 152 50 c 37 44 30 63 -25 63 c -33 0 -52 -6 -72 -24 c -21 -18 -34 -22 -57 -18 c -23 5 -31 3 -31 -8 c 0 -7 5 -17 12 -21 c 7 -5 8 -3 3 5 c -5 9 -1 9 14 -1 c 19 -11 20 -13 4 -17 c -28 -6 -81 29 -98 65 c -9 19 -20 34 -25 34 c -6 0 -10 9 -10 20 c 0 33 13 22 40 -32 c 14 -28 32 -53 40 -55 c 12 -4 12 -3 1 5 c -11 8 -11 11 3 19 c 13 7 15 15 8 33 c -10 26 2 96 20 117 c 16 20 66 16 80 -7 c 10 -16 24 -20 66 -20 c 51 0 53 1 46 23 c -9 31 -11 32 -29 13 c -21 -20 -44 -20 -66 0 c -19 17 -92 38 -83 23 c 3 -5 1 -9 -4 -9 c -16 0 -22 13 -11 27 c 23 27 -2 12 -37 -23 z m 15 -10 c -7 -9 -12 -33 -11 -55 c 2 -22 -2 -39 -8 -39 c -5 0 -10 15 -11 33 c 0 26 -2 29 -9 12 c -9 -22 -3 -63 13 -82 c 6 -9 6 -13 -1 -13 c -5 0 -16 20 -24 45 c -9 25 -13 45 -9 45 c 3 0 17 16 30 35 c 13 19 28 35 34 35 c 5 0 4 -7 -4 -16 z m 138 -174 c -3 -11 -1 -20 4 -20 c 4 0 13 9 19 20 c 6 11 18 20 27 20 c 11 0 13 -3 5 -12 c -6 -7 -10 -17 -11 -23 c 0 -11 -33 -22 -70 -24 c -20 -1 -21 1 -11 14 c 7 8 9 15 5 15 c -4 0 -2 7 5 15 c 18 21 33 19 27 -5 z"/>
<path d="M 1040.9 878.8 c -13 -16 -4 -20 40 -16 c 28 3 38 8 34 18 c -6 15 -60 14 -74 -2 z"/>
<path d="M 845.9 752.8 c -4 -6 -2 -14 4 -16 c 7 -2 9 -9 5 -15 c -4 -7 1 -6 10 2 c 9 7 17 20 17 27 c 0 17 -26 18 -36 2 z"/>
<path d="M 1528.9 588.8 c -29 -34 -26 -46 5 -21 c 14 10 36 58 26 56 c -2 0 -16 -16 -31 -35 z"/>
</g>
    <g>    <text transform="matrix(1,0,0,1,-1.6,3.8)" x="56.5" y="137.8" textLength="89.3" fill="rgb(0, 0, 0)" font-family="inherit" font-size="62.4" font-weight="bold">
        xtc
    </text></g>
    <text font-weight="900" textLength="154.3" font-size="72.3" x="22.5" y="141.5" fill="rgb(0, 0, 0)">
        ()
    </text>
    <text textLength="138.1" x="30.8" y="142.3" fill="rgb(11, 11, 11)" font-size="72.3" font-weight="500">
        ()
    </text>
</svg>
