<?xml version="1.0" standalone="no"?>
<!DOCTYPE svg PUBLIC "-//W3C//DTD SVG 20010904//EN"
 "http://www.w3.org/TR/2001/REC-SVG-20010904/DTD/svg10.dtd">
<svg version="1.0" xmlns="http://www.w3.org/2000/svg"
 width="200.000000pt" height="200.000000pt" viewBox="0 0 200.000000 200.000000"
 preserveAspectRatio="xMidYMid meet">

<g transform="translate(0.000000,200.000000) scale(0.100000,-0.100000)"
fill="#000000" stroke="none">
<path d="M1428 1133 c5 -10 18 -39 30 -64 70 -149 65 -314 -14 -462 l-26 -48
54 3 c53 3 53 3 86 58 45 76 62 140 62 234 -1 93 -19 155 -70 240 -34 55 -35
56 -82 56 -41 0 -46 -2 -40 -17z"/>
<path d="M400 1111 c-103 -145 -106 -356 -8 -506 31 -47 36 -50 81 -53 26 -2
47 0 47 3 0 3 -11 28 -25 54 l-24 49 92 7 c51 4 98 12 105 18 11 8 16 7 23 -6
8 -14 25 -17 87 -17 114 0 116 5 53 95 l-53 76 38 49 c25 33 46 50 60 50 20 0
21 -5 23 -87 3 -145 36 -185 146 -181 l60 3 3 53 c2 38 0 52 -8 47 -6 -4 -22
-4 -36 -1 -23 6 -24 11 -24 76 l0 70 33 1 32 2 -35 7 -35 7 38 2 37 1 0 45 c0
45 0 45 -35 45 l-35 0 0 60 0 60 -65 0 c-65 0 -65 0 -65 -29 0 -63 -11 -91
-36 -91 -21 0 -24 -5 -24 -38 0 -38 -25 -87 -39 -77 -10 5 -43 -28 -40 -41 1
-5 1 -16 0 -24 -1 -12 -4 -11 -16 3 -16 22 -12 37 25 92 58 86 58 83 -14 87
-35 1 -62 0 -60 -4 8 -13 -20 -59 -32 -54 -8 3 -11 -1 -8 -12 2 -9 -5 2 -16
26 l-21 42 -80 0 -80 0 28 -51 c15 -29 38 -63 51 -77 12 -14 22 -30 22 -35 0
-6 -23 -46 -52 -90 -57 -87 -60 -86 -76 10 -18 104 0 206 55 316 l23 47 -49 0
c-44 0 -52 -4 -71 -29z m423 -360 c10 -17 13 -31 8 -31 -6 0 -19 18 -30 41
-22 45 -6 38 22 -10z m-175 -18 c-2 -14 -9 -29 -17 -31 -8 -3 -11 0 -7 7 4 6
2 11 -3 11 -7 0 -7 7 1 20 18 28 30 25 26 -7z"/>
<path d="M1245 1016 c-58 -26 -125 -121 -125 -177 0 -26 3 -30 10 -19 8 12 10
10 10 -8 0 -13 -4 -20 -10 -17 -19 11 -10 -32 13 -66 33 -50 78 -69 167 -69
86 0 127 19 160 72 27 44 26 68 -2 68 -13 0 -39 3 -59 6 -30 5 -37 3 -41 -14
-6 -22 -56 -38 -71 -23 -14 14 -20 113 -8 131 8 12 13 11 34 -8 27 -25 81 -29
134 -10 29 11 33 16 28 36 -22 88 -147 139 -240 98z m109 -102 c10 -26 0 -28
-23 -5 -20 20 -20 21 -2 21 10 0 22 -7 25 -16z"/>
<path d="M1116 654 c-5 -13 -3 -14 6 -6 7 5 22 12 33 15 16 4 14 5 -6 6 -17 1
-29 -5 -33 -15z"/>
</g>
</svg>
